/* XPM */
static char *noname[] = {
/* width height ncolors chars_per_pixel */
"20 20 2 1",
/* colors */
"  c #000000",
". c #00FF00",
/* pixels */
"                    ",
"                    ",
"                    ",
"     ..             ",
"    .....           ",
"   ..  ...          ",
"   ..   ...         ",
"  ..     ...        ",
"  ..      ..        ",
" ..        .       .",
" ..        ..     ..",
" ..        ..    .. ",
"..         ..    .. ",
"..          ..   .  ",
".           ......  ",
".            ....   ",
"                    ",
"                    ",
"                    ",
"                    "
};
